<svg xmlns="http://www.w3.org/2000/svg" viewBox="636.65 7861.51 2000 2000">
  <path fill="#FFD700" fill-rule="evenodd" d="M806.65 8861.51c154.95 194.93 406.1 297.59 626.89 328.63-84.14-94.38-137.67-204.61-142.02-328.63 4.35-124.02 57.89-234.25 142.02-328.63-220.79 31.04-471.94 133.69-626.89 328.63m830-124.98c-69.02 0-124.98 55.95-124.98 124.98 0 69.02 55.95 124.98 124.98 124.98 69.02 0 124.98-55.95 124.98-124.98s-55.95-124.98-124.98-124.98m120.74-323.23c143.78 18 283.66 36.2 405.9 100v-231.68c-147.65-2.57-292.33 35.5-423.33 118.48 5.46.63 11.98 12.52 17.43 13.2m111.29 448.21c-3.69-143.4-122.59-310.36-232.03-384.99-109.44 74.63-228.34 241.59-232.04 384.99 3.7 143.39 122.59 310.36 232.04 384.99 109.44-74.63 228.34-241.59 232.03-384.99m597.96 0c-154.94-194.94-406.09-297.59-626.88-328.63 84.13 94.38 137.67 204.61 142.02 328.63-4.35 124.02-57.89 234.25-142.02 328.63 220.79-31.04 471.94-133.69 626.88-328.63M1515.9 8413.3c-143.78 18-283.66 36.2-405.9 100v-231.68c147.65-2.57 292.32 35.5 423.33 118.48-5.46.63-11.98 12.52-17.43 13.2m241.49 896.41c143.78-18 283.66-36.2 405.9-100v231.68c-147.65 2.57-292.33-35.5-423.33-118.48 5.46-.63 11.98-12.52 17.43-13.2m-241.49 0c-143.78-18-283.66-36.2-405.9-100v231.68c147.65 2.57 292.32-35.5 423.33-118.48-5.46-.63-11.98-12.52-17.43-13.2"/>
</svg>
